<svg width="64" height="64" viewBox="0 0 64 64" fill="none" xmlns="http://www.w3.org/2000/svg">
<path d="M52.75 29H49.22C49.09 29 48.99 28.87 48.99 28.7V25.3C48.99 25.13 49.1 25 49.22 25H52.75C52.88 25 52.98 25.13 52.98 25.3V28.7C52.98 28.87 52.87 29 52.75 29Z" fill="#003057"/>
<path d="M10.99 39H52.99" stroke="#203AE9" stroke-width="4" stroke-linejoin="round"/>
<path d="M58 13H6C4.89543 13 4 13.8954 4 15V49C4 50.1046 4.89543 51 6 51H58C59.1046 51 60 50.1046 60 49V15C60 13.8954 59.1046 13 58 13Z" stroke="#003057" stroke-width="4" stroke-linecap="round" stroke-linejoin="round"/>
</svg>
