<svg width="64" height="64" viewBox="0 0 64 64" fill="none" xmlns="http://www.w3.org/2000/svg">
<path d="M58 13H6C4.89543 13 4 13.8954 4 15V49C4 50.1046 4.89543 51 6 51H58C59.1046 51 60 50.1046 60 49V15C60 13.8954 59.1046 13 58 13Z" stroke="#003057" stroke-width="4" stroke-linecap="round" stroke-linejoin="round"/>
<path d="M19.77 28.01H16.24C16.11 28.01 16.01 27.88 16.01 27.71V24.31C16.01 24.14 16.12 24.01 16.24 24.01H19.77C19.9 24.01 20 24.14 20 24.31V27.71C20 27.88 19.89 28.01 19.77 28.01Z" fill="#003057"/>
<path d="M47.77 28.01H44.24C44.11 28.01 44.01 27.88 44.01 27.71V24.31C44.01 24.14 44.12 24.01 44.24 24.01H47.77C47.9 24.01 48 24.14 48 24.31V27.71C48 27.88 47.89 28.01 47.77 28.01Z" fill="#003057"/>
<path d="M39.0195 34.0098C39.0195 37.8798 35.8895 41.0098 32.0195 41.0098C28.1495 41.0098 25.0195 37.8798 25.0195 34.0098" stroke="#203AE9" stroke-width="4" stroke-miterlimit="10"/>
</svg>
