<svg width="32" height="32" viewBox="0 0 32 32" fill="none" xmlns="http://www.w3.org/2000/svg">
<path d="M21.3333 9.44C21.3333 11.8 20.2133 13.7733 18.6667 14.5333V28H16V14.5333C14.4533 13.7733 13.3333 11.8 13.3333 9.44C13.3467 6.44 15.1333 4 17.3333 4C19.5467 4 21.3333 6.44 21.3333 9.44ZM22.6667 4V28H25.3333V17.3333H28V9.33333C28 6.98667 26.3467 4 22.6667 4ZM11.04 4C10.5067 4 10.08 4.42667 10.08 4.96V9.33333H8.96V4.96C8.96 4.42667 8.53333 4 8 4C7.46667 4 7.04 4.42667 7.04 4.96V9.33333H5.92V4.96C5.92 4.42667 5.49333 4 4.96 4C4.42667 4 4 4.42667 4 4.96V12C4 13.4667 5.2 14.6667 6.66667 14.6667V28H9.33333V14.6667C10.8 14.6667 12 13.4667 12 12V4.96C12 4.42667 11.5733 4 11.04 4Z" fill="white"/>
</svg>
