<svg width="115" height="26" viewBox="0 0 115 26" fill="none" xmlns="http://www.w3.org/2000/svg">
<g clip-path="url(#clip0_34_78)">
<path d="M81.6202 3.44758C79.2254 1.35861 75.9714 0.254822 72.2086 0.254822H64.4151C62.9802 0.254822 61.8169 1.39618 61.8169 2.80409C61.8169 4.21201 62.9802 5.35337 64.4151 5.35337H72.2086C79.6335 5.35337 80.4342 10.7009 80.4342 13C80.4342 15.2992 79.6324 20.6467 72.2086 20.6467H67.0122V10.4507C67.0122 9.04283 65.8489 7.90147 64.4139 7.90147C62.979 7.90147 61.8157 9.04283 61.8157 10.4507V23.1959C61.8157 24.6038 62.979 25.7452 64.4139 25.7452H72.2074C75.969 25.7452 79.2242 24.6414 81.619 22.5524C84.2424 20.2639 85.6295 16.9607 85.6295 13C85.6295 9.0393 84.2424 5.73617 81.619 3.44758H81.6202Z" fill="white"/>
<path d="M44.93 0C43.4951 0 42.3318 1.14136 42.3318 2.54927C42.3318 3.95719 43.4951 5.09855 44.93 5.09855C49.3713 5.09855 52.9832 8.64357 52.9832 13C52.9832 17.3564 49.3701 20.9015 44.93 20.9015C40.4899 20.9015 36.8768 17.3564 36.8768 13C36.8768 10.8887 37.7145 8.90543 39.2357 7.41297C40.2505 6.41722 40.2505 4.80381 39.2357 3.80806C38.2208 2.8123 36.5764 2.8123 35.5615 3.80806C33.059 6.26339 31.6803 9.52777 31.6803 13C31.6803 20.1687 37.6236 26 44.93 26C52.2364 26 58.1797 20.1687 58.1797 13C58.1797 5.83127 52.2352 0 44.93 0Z" fill="white"/>
<path d="M101.75 0C100.315 0 99.1521 1.14136 99.1521 2.54927C99.1521 3.95719 100.315 5.09855 101.75 5.09855C106.192 5.09855 109.804 8.64357 109.804 13C109.804 17.3564 106.19 20.9015 101.75 20.9015C97.3102 20.9015 93.6971 17.3564 93.6971 13C93.6971 10.8887 94.5348 8.90543 96.056 7.41297C97.0709 6.41722 97.0709 4.80381 96.056 3.80806C95.0411 2.8123 93.3967 2.8123 92.3818 3.80806C89.8793 6.26339 88.5006 9.52777 88.5006 13C88.5006 20.1687 94.4439 26 101.75 26C109.057 26 115 20.1687 115 13C115 5.83127 109.057 0 101.75 0Z" fill="white"/>
<path d="M2.60068 13C1.52476 13 0.600839 13.6423 0.207093 14.557C0.0754459 14.8623 0.00244141 15.197 0.00244141 15.5493V23.1959C0.00244141 24.6038 1.16573 25.7452 2.60068 25.7452C4.03564 25.7452 5.19892 24.6038 5.19892 23.1959V15.5493C5.19892 14.1414 4.03564 13 2.60068 13Z" fill="white"/>
<path d="M25.7358 0.376936C24.6611 0.0387551 23.487 0.419209 22.8288 1.31868L13.7691 13.7222L4.70933 1.31868C3.87397 0.174967 2.25111 -0.0880627 1.08424 0.731556C-0.0814387 1.55235 -0.349521 3.14462 0.487039 4.28833L11.6519 19.5746C12.1223 20.2227 12.8954 20.6466 13.7691 20.6466C14.6427 20.6466 15.4123 20.2251 15.8838 19.5781L22.3429 10.7372V23.1971C22.3429 24.605 23.5062 25.7464 24.9411 25.7464C26.3761 25.7464 27.5394 24.605 27.5394 23.1971V2.80409C27.5394 1.69678 26.8105 0.716291 25.7358 0.376936Z" fill="white"/>
</g>
<defs>
<clipPath id="clip0_34_78">
<rect width="115" height="26" fill="white"/>
</clipPath>
</defs>
</svg>
