<svg width="130" height="30" viewBox="0 0 130 30" fill="none" xmlns="http://www.w3.org/2000/svg">
<g clip-path="url(#clip0_34_90)">
<path d="M76.6002 8.07455C75.5282 8.07455 74.7243 8.88025 74.6945 10.0142C74.6647 10.9094 75.2305 11.4466 76.1833 11.4466C77.2553 11.4466 78.0592 10.6409 78.089 9.50691C78.089 8.61169 77.553 8.07455 76.6002 8.07455Z" fill="white"/>
<path d="M73.2652 8.55202C73.2355 8.49233 73.1759 8.46249 73.1163 8.46249H70.764C70.6747 8.46249 70.5853 8.52218 70.5556 8.64154C70.5556 8.64154 69.6325 13.1773 69.5729 13.5056C68.9774 12.4611 67.8161 11.8046 66.3571 11.8046C63.4688 11.8046 61.3844 14.1322 61.3844 17.3252C61.3844 19.9512 62.9626 21.7118 65.3149 21.7118C66.4464 21.7118 67.429 21.2641 68.1734 20.4286C68.1139 20.6673 68.0841 20.9061 68.0246 21.1746C68.0246 21.2343 68.0246 21.294 68.0841 21.3537C68.1139 21.4133 68.1734 21.4432 68.233 21.4432H70.5853C70.6747 21.4432 70.764 21.3835 70.7938 21.2641L73.295 8.73106C73.3248 8.64154 73.295 8.58186 73.2652 8.55202ZM68.7094 16.7582C68.6499 17.0864 68.5308 17.4147 68.3819 17.6833C68.233 17.9518 68.0246 18.2204 67.8161 18.4293C67.6077 18.6382 67.3397 18.7874 67.0717 18.9067C66.5357 19.1156 65.9104 19.1455 65.434 18.9366C65.2256 18.847 65.0171 18.7277 64.8683 18.5486C64.7194 18.3696 64.6003 18.1607 64.5109 17.922C64.4216 17.6833 64.3918 17.3849 64.4216 17.0864C64.4514 16.7284 64.5109 16.3703 64.6598 16.042C64.8087 15.7138 64.9874 15.4154 65.2256 15.1766C65.4638 14.9379 65.7318 14.729 66.0295 14.6097C66.3273 14.4605 66.6548 14.4008 67.0122 14.4008C67.3099 14.4008 67.5779 14.4605 67.8161 14.5798C68.0543 14.6992 68.2628 14.8484 68.4117 15.0573C68.5605 15.2662 68.6796 15.5049 68.7392 15.7735C68.769 16.0719 68.769 16.4001 68.7094 16.7582Z" fill="white"/>
<path d="M76.9575 12.8192H74.5158C74.4265 12.8192 74.3372 12.8789 74.3074 12.9684L72.6697 21.2044C72.6697 21.2641 72.6697 21.3238 72.7292 21.3536C72.759 21.3835 72.8186 21.4133 72.9079 21.4133H75.3496C75.4389 21.4133 75.5282 21.3536 75.558 21.2641L77.2255 13.0579C77.2255 12.9983 77.2255 12.9386 77.1659 12.9087C77.1064 12.8491 77.017 12.8192 76.9575 12.8192Z" fill="white"/>
<path d="M41.4043 20.6673C41.6426 19.5632 42.119 17.0864 42.119 17.0268C42.2381 17.0268 45.0073 17.0566 45.0073 17.0566C48.3125 17.0566 50.3671 15.296 50.3671 12.4313C50.3671 9.92469 48.6698 8.46249 45.8113 8.46249H40.8981C40.8088 8.46249 40.7195 8.52218 40.6897 8.64154L38.1885 21.0851C38.1885 21.1448 38.1885 21.2045 38.248 21.2641C38.2778 21.3238 38.3374 21.3537 38.4267 21.3537H39.4093H40.6302C40.5706 21.3537 41.2555 21.3537 41.4043 20.6673ZM45.0966 14.3709C45.0966 14.3709 42.7443 14.3709 42.655 14.3709C42.6847 14.3113 43.2803 11.2377 43.31 11.1183C43.4291 11.1183 45.5731 11.1482 45.5731 11.1482C46.645 11.1482 47.2405 11.6554 47.2405 12.5805C47.2405 13.7145 46.4663 14.3709 45.0966 14.3709Z" fill="white"/>
<path d="M95.0914 11.8046C91.8755 11.8046 89.553 14.1024 89.553 17.2655C89.553 19.981 91.3991 21.7117 94.2577 21.7117C97.4735 21.7117 99.7961 19.414 99.7961 16.2509C99.7961 13.5354 97.95 11.8046 95.0914 11.8046ZM94.4363 18.9067C93.2155 18.9067 92.5009 18.2204 92.5009 17.0864C92.5009 15.6541 93.5133 14.6096 94.883 14.6096C96.1038 14.6096 96.8185 15.296 96.8185 16.4299C96.8185 17.8623 95.8358 18.9067 94.4363 18.9067Z" fill="white"/>
<path d="M89.8805 8.55202C89.8507 8.49233 89.7911 8.46249 89.7316 8.46249H87.3792C87.2899 8.46249 87.2006 8.52218 87.1708 8.64154C87.1708 8.64154 86.2477 13.1773 86.1882 13.5056C85.5926 12.4611 84.4314 11.8046 82.9723 11.8046C80.084 11.8046 77.9996 14.1322 77.9996 17.3252C77.9996 19.9512 79.5778 21.7118 81.9301 21.7118C83.0616 21.7118 84.0443 21.2641 84.7887 20.4286C84.7291 20.6673 84.6994 20.9061 84.6398 21.1746C84.6398 21.2343 84.6398 21.294 84.6994 21.3537C84.7291 21.4133 84.7887 21.4432 84.8482 21.4432H87.2006C87.2899 21.4432 87.3792 21.3835 87.409 21.2641L89.9102 8.73106C89.94 8.64154 89.9102 8.58186 89.8805 8.55202ZM85.3842 16.7582C85.3247 17.0864 85.2056 17.4147 85.0567 17.6833C84.9078 17.9518 84.6994 18.2204 84.4909 18.4293C84.2825 18.6382 84.0145 18.7874 83.7465 18.9067C83.2105 19.1156 82.5852 19.1455 82.1088 18.9366C81.9004 18.847 81.6919 18.7277 81.543 18.5486C81.3942 18.3696 81.2751 18.1607 81.1857 17.922C81.0964 17.6833 81.0666 17.3849 81.0964 17.0864C81.1262 16.7284 81.1857 16.3703 81.3346 16.042C81.4835 15.7138 81.6621 15.4154 81.9004 15.1766C82.1386 14.9379 82.4066 14.729 82.7043 14.6097C83.0021 14.4605 83.3296 14.4008 83.6869 14.4008C83.9847 14.4008 84.2527 14.4605 84.4909 14.5798C84.7291 14.6992 84.9376 14.8484 85.0864 15.0573C85.2353 15.2662 85.3544 15.5049 85.414 15.7735C85.4438 16.0719 85.4438 16.4001 85.3842 16.7582Z" fill="white"/>
<path d="M107.598 12.5208C106.377 11.9538 105.096 11.7151 103.935 11.8046C101.91 11.9837 100.749 13.2071 100.898 14.9677C100.987 16.042 101.613 16.8477 102.774 17.4744L104.054 18.1607C104.59 18.4293 104.62 18.5785 104.65 18.7277C104.679 19.1156 104.233 19.2051 103.995 19.235C103.191 19.2946 102.208 18.9962 101.166 18.3397C101.106 18.3099 101.047 18.3099 101.017 18.3099C100.957 18.3099 100.928 18.3696 100.898 18.3994L99.8557 20.2197C99.7961 20.3092 99.8259 20.4286 99.9152 20.4883C101.196 21.3536 102.684 21.7416 104.173 21.6222C106.436 21.4133 107.627 20.2197 107.478 18.3397C107.389 17.2058 106.823 16.4896 105.573 15.8331L104.411 15.2363C103.727 14.8484 103.697 14.7589 103.667 14.5798C103.667 14.4903 103.637 14.1919 104.292 14.1322C104.947 14.0725 105.781 14.2814 106.615 14.6693C106.675 14.6992 106.734 14.6992 106.764 14.6693C106.823 14.6395 106.853 14.6097 106.883 14.55L107.687 12.6998C107.746 12.67 107.717 12.5506 107.598 12.5208Z" fill="white"/>
<path d="M120.401 8.85041C120.372 8.76088 120.282 8.73104 120.193 8.73104H116.858C116.769 8.73104 116.709 8.76088 116.679 8.82057C116.679 8.82057 113.344 13.5354 113.136 13.983C113.076 13.5652 111.439 8.88025 111.439 8.88025C111.409 8.79072 111.32 8.7012 111.23 8.7012H108.312C108.253 8.7012 108.163 8.73104 108.134 8.79072C108.104 8.85041 108.074 8.93993 108.104 8.99961L111.201 16.8775L110.277 21.4432C110.277 21.5028 110.277 21.5924 110.337 21.6222C110.367 21.6819 110.456 21.7117 110.516 21.7117H112.868C113.166 21.7117 113.434 21.5028 113.493 21.1746L114.327 16.9372L120.431 9.02945C120.431 8.99961 120.431 8.91009 120.401 8.85041Z" fill="white"/>
<path d="M127.488 12.4015C127.458 12.3418 127.399 12.3119 127.339 12.3119H125.047C124.957 12.3119 124.868 12.3716 124.838 12.491C124.838 12.491 124.749 12.9386 124.689 13.237C124.153 12.6103 123.349 12.2224 122.545 12.1627C121.801 12.1031 121.086 12.2224 120.401 12.491C118.138 13.3564 116.62 15.5944 116.65 18.0413C116.679 20.16 118.049 21.5924 120.193 21.7118C121.325 21.7714 122.337 21.4133 123.23 20.6673C123.171 20.9061 123.111 21.2045 123.081 21.4133C123.081 21.473 123.081 21.5327 123.141 21.5924C123.171 21.6521 123.23 21.6521 123.29 21.6521H125.583C125.672 21.6521 125.761 21.5924 125.791 21.473L127.548 12.5507C127.548 12.5208 127.518 12.4611 127.488 12.4015ZM123.915 16.9969C123.856 17.3252 123.766 17.6236 123.617 17.8921C123.468 18.1607 123.29 18.3994 123.081 18.6083C122.873 18.8172 122.635 18.9664 122.367 19.0858C121.86 19.2947 121.265 19.2947 120.789 19.1156C120.58 19.0261 120.401 18.9067 120.253 18.7277C120.104 18.5785 119.985 18.3696 119.925 18.1309C119.836 17.8921 119.806 17.6236 119.836 17.355C119.865 16.9969 119.925 16.6687 120.074 16.3404C120.193 16.042 120.401 15.7436 120.61 15.5049C120.818 15.2662 121.086 15.0871 121.384 14.9379C121.682 14.7887 121.98 14.729 122.307 14.729C122.605 14.729 122.843 14.7887 123.081 14.8782C123.32 14.9976 123.498 15.1468 123.647 15.3258C123.796 15.5049 123.915 15.7436 123.945 16.0122C123.975 16.3404 123.975 16.6687 123.915 16.9969Z" fill="white"/>
<path d="M55.9949 11.7748C52.8386 11.7748 50.5458 14.0725 50.5458 17.2655C50.5458 20.0108 52.3919 21.7118 55.3398 21.7118C56.6797 21.7118 57.7815 21.3537 58.9428 20.5778C59.0619 20.5181 59.0619 20.3689 58.9725 20.2794L57.5135 18.7874C57.4539 18.7277 57.3646 18.6978 57.2753 18.7575C56.65 19.0858 56.0247 19.235 55.3696 19.235C54.0296 19.235 53.2257 18.6083 53.1959 17.5341L59.8361 17.5042C59.9254 17.5042 60.0147 17.4445 60.0445 17.3252C60.1934 16.6388 60.2827 16.1614 60.2827 15.6243C60.3125 13.2668 58.645 11.7748 55.9949 11.7748ZM53.5234 15.4452C53.9701 14.4008 54.7443 13.8637 55.9353 13.8637C57.1264 13.8637 57.7219 14.4008 57.7815 15.4751C57.573 15.4751 53.7319 15.4452 53.5234 15.4452Z" fill="white"/>
<path d="M21.904 0.807465H21.5773H20.0924H2.92722C2.65994 0.807465 2.42236 1.01592 2.42236 1.31372V4.05344C2.42236 7.03141 4.53089 8.66929 8.36188 8.66929L21.9337 8.69907C23.3592 8.69907 24.5174 9.86047 24.5174 11.2899C24.5174 12.7193 23.3592 13.8807 21.9337 13.8807H6.69882C6.49093 13.8807 6.28305 14.0296 6.22365 14.2381L2.63025 28.4727C2.60055 28.6216 2.63025 28.7705 2.71934 28.8897C2.80843 29.0088 2.95692 29.0683 3.10541 29.0683H7.91642C9.72797 29.0683 10.5892 27.5794 10.7971 26.7753L12.2226 21.6532H21.904C27.6356 21.6532 32.2981 16.9778 32.2981 11.2303C32.2981 5.48287 27.6356 0.807465 21.904 0.807465Z" fill="white"/>
</g>
<defs>
<clipPath id="clip0_34_90">
<rect width="130" height="29.8758" fill="white"/>
</clipPath>
</defs>
</svg>
